<svg xmlns="http://www.w3.org/2000/svg" version="1.1" xmlns:xlink="http://www.w3.org/1999/xlink" x="0" y="0" width="148" height="123" viewBox="0, 0, 148, 123"><metadata><rdf:RDF xmlns:rdf="http://www.w3.org/1999/02/22-rdf-syntax-ns#" xmlns:dc="http://purl.org/dc/elements/1.1/"><rdf:Description><dc:creator>RealFaviconGenerator</dc:creator><dc:source>https://realfavicongenerator.net</dc:source></rdf:Description></rdf:RDF></metadata><g id="Layer_1">
    <path d="M0,39 C0,39 72,75 72,75 C72,75 72,123 72,123 C72,123 0,87 0,87 C0,87 0,39 0,39 z" fill="#E84903"></path>
    <path d="M148,39 C148,39 76,75 76,75 C76,75 76,123 76,123 C76,123 148,87 148,87 C148,87 148,39 148,39 z" fill="#E84903"></path>
    <path d="M2,36 C2,36 74,0 74,0 C74,0 146,36 146,36 C146,36 74,72 74,72 C74,72 2,36 2,36 z" fill="#FF6826"></path>
  </g></svg>